# xmcd CD database file
#
# Track frame offsets:
#	150
#	19405
#	31214
#	45687
#	59092
#	71361
#	84066
#	98264
#	111276
#	125943
#	142609
#	158710
#	177671
#	190749
#	203443
#	219821
#	231915
#	246313
#	259812
#	274853
#	290428
#	308772
#	321643
#
# Disc length: 4550 seconds
#
# Revision: 2
# Processed by: cddbd v1.5.2PL0 Copyright (c) Steve Scherf et al.
# Submitted via: CDex 1.51
#
DISCID=4a11c417
DTITLE=אמנים שונים - ארבע אחה''צ - דיסק 2 - בוא שי עברי
DYEAR=2005
DGENRE=Classic Israeli
TTITLE0=דודו אלהרר - בוא שיר עברי
TTITLE1=עדנה גורן - לפנות ערב
TTITLE2=חוה אלברשטיין - פרח הלילך
TTITLE3=גלי עטרי - תני לו פרח
TTITLE4=סקסטה - הדודאים
TTITLE5=שלישיית גשר הירקון - אותך
TTITLE6=צמד דרום - שיר אהבה ישן
TTITLE7=הדודאים - בלדה לשיער הארוך והשיער הקצר
TTITLE8=דני מסינג וצוות תפוח זהב - השמלה הסגולה
TTITLE9=יהודית רביץ - סליחות
TTITLE10=האחים והאחיות - כמו בלדה
TTITLE11=שרה בדישי - סתיו בחלונות
TTITLE12=הפרברים - ציפורים נודדות
TTITLE13=אמנון ברנזון עם מיכל טל ורפי גרנות - העגורים
TTITLE14=הדודאים - אבינועם בחור כארז
TTITLE15=האחים והאחיות - על ענפי שיטה
TTITLE16=יוסי בנאי ונורית גלרון - תחת עץ האהבה
TTITLE17=אריק לביא - נועה
TTITLE18=יהורם גאון - בעדן ילדים
TTITLE19=חוה אלברשטיין - ימי בנימינה
TTITLE20=מתי כספי - ילדותי השנייה
TTITLE21=עלי ושרון מוהר - תן לי יד
TTITLE22=אריק איינשטיין - עוף גוזל
EXTD=YEAR: 2005
EXTT0=
EXTT1=
EXTT2=
EXTT3=
EXTT4=
EXTT5=
EXTT6=
EXTT7=
EXTT8=
EXTT9=
EXTT10=
EXTT11=
EXTT12=
EXTT13=
EXTT14=
EXTT15=
EXTT16=
EXTT17=
EXTT18=
EXTT19=
EXTT20=
EXTT21=
EXTT22=
PLAYORDER=
